<?xml version="1.0" encoding="utf-8"?>
<!-- Generator: Adobe Illustrator 22.0.1, SVG Export Plug-In . SVG Version: 6.00 Build 0)  -->
<svg version="1.1" id="Calque_1" xmlns="http://www.w3.org/2000/svg" xmlns:xlink="http://www.w3.org/1999/xlink" x="0px" y="0px"
	 viewBox="0 0 444 457.5" style="enable-background:new 0 0 444 457.5;" xml:space="preserve">
<style type="text/css">
	.st0{fill:url(#SVGID_1_);}
	.st1{opacity:0.8;}
	.st2{fill:url(#SVGID_2_);}
	.st3{fill:url(#SVGID_3_);}
	.st4{fill:url(#SVGID_4_);}
	.st5{fill:url(#SVGID_5_);}
	.st6{fill:url(#SVGID_6_);}
	.st7{fill:url(#SVGID_7_);}
	.st8{fill:url(#SVGID_8_);}
	.st9{fill:url(#SVGID_9_);}
	.st10{fill:url(#SVGID_10_);}
	.st11{fill:url(#SVGID_11_);}
	.st12{fill:none;stroke:url(#SVGID_12_);stroke-width:6;stroke-miterlimit:10;}
	.st13{fill:none;stroke:url(#SVGID_13_);stroke-width:24;stroke-miterlimit:10;}
	.st14{fill:#FFFFFF;}
	.st15{fill:url(#SVGID_14_);}
	.st16{fill:url(#SVGID_15_);stroke:#FFFFFF;stroke-width:5;stroke-miterlimit:10;}
	.st17{opacity:0.2;}
	.st18{fill:url(#SVGID_16_);}
	.st19{display:none;}
	.st20{display:inline;fill:url(#SVGID_17_);}
	.st21{display:inline;fill:url(#SVGID_18_);}
	.st22{display:inline;fill:url(#SVGID_19_);}
	.st23{display:inline;fill:url(#SVGID_20_);}
	.st24{display:inline;fill:url(#SVGID_21_);}
	.st25{display:inline;fill:url(#SVGID_22_);}
	.st26{display:inline;fill:url(#SVGID_23_);}
	.st27{display:inline;fill:url(#SVGID_24_);}
	.st28{display:inline;fill:url(#SVGID_25_);}
	.st29{display:inline;fill:url(#SVGID_26_);}
</style>
<symbol  id="Bouton_xA0_5_xA0_-_Bleu_2" viewBox="-135.5 3.5 124.6 10.7">
	<g>
		<g>
			<linearGradient id="SVGID_1_" gradientUnits="userSpaceOnUse" x1="-73.1616" y1="14.8043" x2="-73.1616" y2="-2.2366">
				<stop  offset="0" style="stop-color:#FCF9D0"/>
				<stop  offset="1" style="stop-color:#000000"/>
			</linearGradient>
			<path class="st0" d="M-16.6,14.3h-83.2c10,0,0,0-35.6-2.1l6.6-8.6c29,16.7,44,0.9,34,0.9l84-0.3"/>
		</g>
	</g>
</symbol>
<symbol  id="Téléphone_xA0_-_Gris" viewBox="-129.6 -141 282 282">
	<g>
		<g class="st1">
			<linearGradient id="SVGID_2_" gradientUnits="userSpaceOnUse" x1="4.8671" y1="54.3068" x2="81.5093" y2="-239.4162">
				<stop  offset="0" style="stop-color:#FFFFFF"/>
				<stop  offset="1" style="stop-color:#BAC6CD"/>
			</linearGradient>
			<path class="st2" d="M108,105.9c24.6-25.7,39.8-60.6,39.8-98.9c0-79-64.3-143.3-143.3-143.3c-38.3,0-73.2,15.2-98.9,39.8
				C-68.4-123.9-31.6-141,9.1-141c79,0,143.3,64.3,143.3,143.3C152.4,43,135.3,79.7,108,105.9z"/>
		</g>
		<g>
			<g>
				<g>
					<linearGradient id="SVGID_3_" gradientUnits="userSpaceOnUse" x1="-30.0673" y1="144.656" x2="22.8152" y2="-47.7367">
						<stop  offset="0" style="stop-color:#FEF8D7"/>
						<stop  offset="1" style="stop-color:#000000"/>
					</linearGradient>
					<path class="st3" d="M-26.3-24.1C24,19.2,89.1,59.6,145.1,29.1C132.6,92.8,76.4,141,9.1,141c-76.5,0-138.7-62.2-138.7-138.7
						c0-18.5,3.7-36.2,10.3-52.4C-97.3-55.6-63.1-55.8-26.3-24.1z"/>
				</g>
			</g>
			<g>
				<linearGradient id="SVGID_4_" gradientUnits="userSpaceOnUse" x1="-54.9132" y1="170.3951" x2="43.4995" y2="-114.9952">
					<stop  offset="0" style="stop-color:#FFFFFF"/>
					<stop  offset="1" style="stop-color:#000000"/>
				</linearGradient>
				<path class="st4" d="M-120.4-7c0,76.5,62.2,138.7,138.7,138.7c35.9,0,68.6-13.7,93.3-36.2C86.2,123.5,49.6,141,9.1,141
					c-76.5,0-138.7-62.2-138.7-138.7c0-40.6,17.5-77.2,45.4-102.5C-106.7-75.6-120.4-42.9-120.4-7z"/>
			</g>
		</g>
	</g>
</symbol>
<g>
	<g>
		<g>
			
				<linearGradient id="SVGID_5_" gradientUnits="userSpaceOnUse" x1="168.8136" y1="176.851" x2="240.7911" y2="176.851" gradientTransform="matrix(0.9999 -1.160000e-02 1.160000e-02 0.9999 -5.4513 0.607)">
				<stop  offset="0" style="stop-color:#650746"/>
				<stop  offset="0.228" style="stop-color:#872345"/>
				<stop  offset="0.4846" style="stop-color:#AD393F"/>
				<stop  offset="0.7083" style="stop-color:#CD4A33"/>
				<stop  offset="0.8876" style="stop-color:#E15428"/>
				<stop  offset="1" style="stop-color:#EB5924"/>
			</linearGradient>
			<path class="st5" d="M166.4,20.6c0,0,68.9-13.1,69.7,53.5l3,253.3c0,0-71.7,20.2-72.5-41.2L166.4,20.6z"/>
			
				<use xlink:href="#Bouton_xA0_5_xA0_-_Bleu_2"  width="124.6" height="10.7" id="XMLID_36_" x="-135.5" y="3.5" transform="matrix(0 1.3404 1.4113 0 206.311 223.3584)" style="overflow:visible;opacity:0.1;"/>
		</g>
		<g>
			<g>
				<linearGradient id="SVGID_6_" gradientUnits="userSpaceOnUse" x1="106.9932" y1="277.3643" x2="331.2798" y2="277.3643">
					<stop  offset="0" style="stop-color:#650746"/>
					<stop  offset="0.228" style="stop-color:#872345"/>
					<stop  offset="0.4846" style="stop-color:#AD393F"/>
					<stop  offset="0.7083" style="stop-color:#CD4A33"/>
					<stop  offset="0.8876" style="stop-color:#E15428"/>
					<stop  offset="1" style="stop-color:#EB5924"/>
				</linearGradient>
				<polygon class="st6" points="328.7,329 244.9,310.5 147.6,240.1 107,237.7 107.7,225.7 151.8,228.3 249.9,299.3 331.3,317.3 
									"/>
				<linearGradient id="SVGID_7_" gradientUnits="userSpaceOnUse" x1="49.1738" y1="230.2392" x2="116.7676" y2="230.2392">
					<stop  offset="0" style="stop-color:#650746"/>
					<stop  offset="0.228" style="stop-color:#872345"/>
					<stop  offset="0.4846" style="stop-color:#AD393F"/>
					<stop  offset="0.7083" style="stop-color:#CD4A33"/>
					<stop  offset="0.8876" style="stop-color:#E15428"/>
					<stop  offset="1" style="stop-color:#EB5924"/>
				</linearGradient>
				<path class="st7" d="M83,264c-18.6,0-33.8-15.2-33.8-33.8c0-18.6,15.2-33.8,33.8-33.8s33.8,15.2,33.8,33.8
					C116.8,248.9,101.6,264,83,264z M83,208.4c-12,0-21.8,9.8-21.8,21.8c0,12,9.8,21.8,21.8,21.8s21.8-9.8,21.8-21.8
					C104.8,218.2,95,208.4,83,208.4z"/>
			</g>
			<g>
				<linearGradient id="SVGID_8_" gradientUnits="userSpaceOnUse" x1="75.1772" y1="306.4773" x2="247.96" y2="306.4773">
					<stop  offset="0" style="stop-color:#650746"/>
					<stop  offset="0.228" style="stop-color:#872345"/>
					<stop  offset="0.4846" style="stop-color:#AD393F"/>
					<stop  offset="0.7083" style="stop-color:#CD4A33"/>
					<stop  offset="0.8876" style="stop-color:#E15428"/>
					<stop  offset="1" style="stop-color:#EB5924"/>
				</linearGradient>
				<polygon class="st8" points="247.4,315.8 135,310.6 75.2,309.1 75.5,297.1 135.5,298.6 248,303.9 				"/>
				<linearGradient id="SVGID_9_" gradientUnits="userSpaceOnUse" x1="13.8779" y1="300.2448" x2="81.4939" y2="300.2448">
					<stop  offset="0" style="stop-color:#650746"/>
					<stop  offset="0.228" style="stop-color:#872345"/>
					<stop  offset="0.4846" style="stop-color:#AD393F"/>
					<stop  offset="0.7083" style="stop-color:#CD4A33"/>
					<stop  offset="0.8876" style="stop-color:#E15428"/>
					<stop  offset="1" style="stop-color:#EB5924"/>
				</linearGradient>
				<path class="st9" d="M47.7,334c-13.6,0-25.9-8.1-31.2-20.7c-7.2-17.2,0.9-37,18-44.3c4.2-1.8,8.6-2.7,13.1-2.7
					c13.6,0,25.9,8.1,31.2,20.7c3.5,8.3,3.6,17.5,0.1,25.9c-3.4,8.4-9.9,14.9-18.2,18.4C56.6,333.2,52.2,334,47.7,334z M47.7,278.4
					c-2.9,0-5.7,0.6-8.4,1.7c-11.1,4.7-16.3,17.5-11.6,28.5c3.4,8.1,11.3,13.4,20.1,13.4c2.9,0,5.7-0.6,8.4-1.7
					c5.4-2.3,9.5-6.5,11.7-11.9c2.2-5.4,2.2-11.3-0.1-16.7C64.4,283.7,56.5,278.4,47.7,278.4z"/>
			</g>
			<g>
				<linearGradient id="SVGID_10_" gradientUnits="userSpaceOnUse" x1="112.043" y1="335.6599" x2="254.8398" y2="335.6599">
					<stop  offset="0" style="stop-color:#650746"/>
					<stop  offset="0.228" style="stop-color:#872345"/>
					<stop  offset="0.4846" style="stop-color:#AD393F"/>
					<stop  offset="0.7083" style="stop-color:#CD4A33"/>
					<stop  offset="0.8876" style="stop-color:#E15428"/>
					<stop  offset="1" style="stop-color:#EB5924"/>
				</linearGradient>
				<polygon class="st10" points="112.2,376.4 112,364.4 165.5,363.7 195.1,332.6 247.9,294.9 254.8,304.7 203,341.7 170.7,375.7 
									"/>
				<linearGradient id="SVGID_11_" gradientUnits="userSpaceOnUse" x1="49.1738" y1="369.4658" x2="116.7705" y2="369.4658">
					<stop  offset="0" style="stop-color:#650746"/>
					<stop  offset="0.228" style="stop-color:#872345"/>
					<stop  offset="0.4846" style="stop-color:#AD393F"/>
					<stop  offset="0.7083" style="stop-color:#CD4A33"/>
					<stop  offset="0.8876" style="stop-color:#E15428"/>
					<stop  offset="1" style="stop-color:#EB5924"/>
				</linearGradient>
				<path class="st11" d="M83,403.3c-18.6,0-33.8-15.2-33.8-33.8s15.2-33.8,33.8-33.8c18.6,0,33.8,15.2,33.8,33.8
					S101.6,403.3,83,403.3z M83,347.7c-12,0-21.8,9.8-21.8,21.8c0,12,9.8,21.8,21.8,21.8c12,0,21.8-9.8,21.8-21.8
					C104.8,357.4,95,347.7,83,347.7z"/>
			</g>
		</g>
		<linearGradient id="SVGID_12_" gradientUnits="userSpaceOnUse" x1="247.5054" y1="311.1914" x2="247.5054" y2="311.1914">
			<stop  offset="0" style="stop-color:#650746"/>
			<stop  offset="0.228" style="stop-color:#872345"/>
			<stop  offset="0.4846" style="stop-color:#AD393F"/>
			<stop  offset="0.7083" style="stop-color:#CD4A33"/>
			<stop  offset="0.8876" style="stop-color:#E15428"/>
			<stop  offset="1" style="stop-color:#EB5924"/>
		</linearGradient>
		<path class="st12" d="M247.5,311.2"/>
		<g>
			<linearGradient id="SVGID_13_" gradientUnits="userSpaceOnUse" x1="151.608" y1="299.8523" x2="419.2557" y2="299.8523">
				<stop  offset="0" style="stop-color:#650746"/>
				<stop  offset="0.228" style="stop-color:#872345"/>
				<stop  offset="0.4846" style="stop-color:#AD393F"/>
				<stop  offset="0.7083" style="stop-color:#CD4A33"/>
				<stop  offset="0.8876" style="stop-color:#E15428"/>
				<stop  offset="1" style="stop-color:#EB5924"/>
			</linearGradient>
			<path class="st13" d="M383.4,227.5c39.9,54.1,28.4,130.4-25.7,170.3c-54.1,39.9-130.4,28.4-170.4-25.7
				C147.5,318,159,241.8,213.1,201.8C267.2,161.9,343.5,173.4,383.4,227.5z"/>
			<path class="st14" d="M378,231.7c37.7,51.1,26.9,123.2-24.3,160.9c-51.1,37.7-123.2,26.9-160.9-24.3
				c-37.7-51.1-26.9-123.2,24.3-160.9C268.2,169.7,340.3,180.5,378,231.7z"/>
			<g>
				
					<linearGradient id="SVGID_14_" gradientUnits="userSpaceOnUse" x1="168.9963" y1="320.3687" x2="360.3715" y2="320.3687" gradientTransform="matrix(0.9174 0.3981 -0.3981 0.9174 175.0107 -96.359)">
					<stop  offset="0" style="stop-color:#650746"/>
					<stop  offset="0.228" style="stop-color:#872345"/>
					<stop  offset="0.4846" style="stop-color:#AD393F"/>
					<stop  offset="0.7083" style="stop-color:#CD4A33"/>
					<stop  offset="0.8876" style="stop-color:#E15428"/>
					<stop  offset="1" style="stop-color:#EB5924"/>
				</linearGradient>
				<path class="st15" d="M263,202.7c-8.5,2-16.5,5-23.9,8.8c18.3,33.7,31.3,85.3,31.3,85.3s-47.5,9.4-85.4,8.4
					c0.3,6.1,1.1,12.2,2.5,18.3c12.5,54.2,66.6,88.1,120.8,75.6c54.2-12.5,88.1-66.6,75.6-120.8C371.3,224.1,317.3,190.2,263,202.7z
					"/>
				<g>
					<path class="st14" d="M292.8,287.5c-1.4,3.4,0.2,7.2,3.6,8.6c3.4,1.4,7.2-0.2,8.6-3.6c1.4-3.4-0.2-7.2-3.6-8.6
						C298.1,282.5,294.2,284.1,292.8,287.5z"/>
					<path class="st14" d="M312.6,273.8c-1.7,4.1,0.3,8.8,4.4,10.5c4.1,1.7,8.8-0.3,10.5-4.4c1.7-4.1-0.3-8.8-4.4-10.5
						C319,267.7,314.3,269.6,312.6,273.8z"/>
				</g>
				
					<use xlink:href="#Téléphone_xA0_-_Gris"  width="282" height="282" id="XMLID_35_" x="-129.6" y="-141" transform="matrix(0.7222 -0.1663 -0.1619 -0.7025 278.8706 303.0351)" style="overflow:visible;opacity:0.2;"/>
			</g>
			<g>
				
					<linearGradient id="SVGID_15_" gradientUnits="userSpaceOnUse" x1="115.1395" y1="306.2846" x2="230.1296" y2="306.2846" gradientTransform="matrix(0.9174 0.3981 -0.3981 0.9174 175.0107 -96.359)">
					<stop  offset="0" style="stop-color:#650746"/>
					<stop  offset="0.228" style="stop-color:#872345"/>
					<stop  offset="0.4846" style="stop-color:#AD393F"/>
					<stop  offset="0.7083" style="stop-color:#CD4A33"/>
					<stop  offset="0.8876" style="stop-color:#E15428"/>
					<stop  offset="1" style="stop-color:#EB5924"/>
				</linearGradient>
				<path class="st16" d="M258.8,288.6c0,0-94.8,18.8-110.6-3.9c-15.8-22.7,31.1-94.8,58.7-93.8
					C234.6,191.9,258.8,288.6,258.8,288.6z"/>
				<g class="st17">
					<g>
						<g>
							<g>
								
									<linearGradient id="SVGID_16_" gradientUnits="userSpaceOnUse" x1="-7412.7866" y1="-8599.0322" x2="-7283.2593" y2="-8127.7979" gradientTransform="matrix(0.1251 -1.700000e-02 2.320000e-02 0.1709 1299.6307 1543.1595)">
									<stop  offset="0" style="stop-color:#FEF8D7"/>
									<stop  offset="1" style="stop-color:#000000"/>
								</linearGradient>
								<path class="st18" d="M179.9,271.6c11.2-17.2,46.1-39.9,63-30.7c-7-22.5-22.4-53.7-40.6-51.6c-20.7,2.4-63.2,56.7-59,84.2
									c1,6.7,3.1,12.6,7.9,16.2C157.5,291.1,171.7,284.2,179.9,271.6z"/>
							</g>
						</g>
					</g>
				</g>
			</g>
		</g>
	</g>
</g>
<g class="st19">
	<linearGradient id="SVGID_17_" gradientUnits="userSpaceOnUse" x1="27.7578" y1="507.5132" x2="80.1484" y2="507.5132">
		<stop  offset="0" style="stop-color:#6B1243"/>
		<stop  offset="1" style="stop-color:#E24E25"/>
	</linearGradient>
	<path class="st20" d="M27.8,460.8h8.5v33.7c7.6-3.1,17.9-4.7,23.2-4.7c17.8,0,20.6,16.5,20.6,32.6c0,14.4-3.5,31.7-20.6,31.7
		c-8,0-20.1-5.4-23.1-7.7l-2.4,7h-6.3V460.8z M59.5,545.4c7.7,0,11.9-7.7,11.9-23c0-19.2-4.4-23.8-11.9-23.8c-9.1,0-15,0.9-23.1,3.1
		V540C42.7,542.6,50.2,545.4,59.5,545.4z"/>
	<linearGradient id="SVGID_18_" gradientUnits="userSpaceOnUse" x1="91.9482" y1="512.4101" x2="103.3935" y2="512.4101">
		<stop  offset="0" style="stop-color:#6B1243"/>
		<stop  offset="1" style="stop-color:#E24E25"/>
	</linearGradient>
	<path class="st21" d="M91.9,474.3c0-1.8,0.9-2.9,2.8-2.9h5.9c1.8,0,2.7,1.3,2.7,2.9v6.4c0,1.8-1.1,2.7-2.7,2.7h-5.9
		c-1.7,0-2.8-1.1-2.8-2.7V474.3z M93.1,490.8h8.7v62.7h-8.7V490.8z"/>
	<linearGradient id="SVGID_19_" gradientUnits="userSpaceOnUse" x1="115.1934" y1="522.1445" x2="163.5718" y2="522.1445">
		<stop  offset="0" style="stop-color:#6B1243"/>
		<stop  offset="1" style="stop-color:#E24E25"/>
	</linearGradient>
	<path class="st22" d="M135.8,490.2c6.1,0,18.6,1.5,26.9,3.1v6.4c0,0-16.4-0.7-26.9-0.7c-7.1,0-11.9,1.3-11.9,23.6
		c0,18.1,3.4,22.8,11.9,22.8c10.9,0,27.7-1.3,27.7-1.3v6.6c-9.6,2.7-17.9,3.3-27.7,3.4c-11.7,0-20.6-4.5-20.6-32
		C115.2,494.7,123.8,490.2,135.8,490.2z"/>
	<linearGradient id="SVGID_20_" gradientUnits="userSpaceOnUse" x1="175.373" y1="507.2182" x2="226.5835" y2="507.2182">
		<stop  offset="0" style="stop-color:#6B1243"/>
		<stop  offset="1" style="stop-color:#E24E25"/>
	</linearGradient>
	<path class="st23" d="M175.4,461h8.7v37.2c7.2-4.1,13.6-8.4,23.1-8.4c12.5,0,19.4,9.7,19.4,20.1v43.7h-8.7v-43.7
		c0-7.8-4.5-11.3-10.6-11.3c-9.4,0-14,2.4-23.1,6.7v48.3h-8.7V461z"/>
	<linearGradient id="SVGID_21_" gradientUnits="userSpaceOnUse" x1="239.5649" y1="521.7905" x2="280.3911" y2="521.7905">
		<stop  offset="0" style="stop-color:#6B1243"/>
		<stop  offset="1" style="stop-color:#E24E25"/>
	</linearGradient>
	<path class="st24" d="M239.6,490.8h6.1l2.6,7.9c7.2-4.1,13.7-8.6,23.4-8.6c3.4,0,7.3,0.2,8.7,0.9v8.6c-1.4-0.4-5.3-0.7-8.7-0.7
		c-9.4,0-14.3,2.5-23.4,6.8v47.7h-8.7V490.8z"/>
	<linearGradient id="SVGID_22_" gradientUnits="userSpaceOnUse" x1="288.6509" y1="512.4101" x2="300.0972" y2="512.4101">
		<stop  offset="0" style="stop-color:#6B1243"/>
		<stop  offset="1" style="stop-color:#E24E25"/>
	</linearGradient>
	<path class="st25" d="M288.7,474.3c0-1.8,0.9-2.9,2.8-2.9h5.9c1.8,0,2.7,1.3,2.7,2.9v6.4c0,1.8-1.1,2.7-2.7,2.7h-5.9
		c-1.7,0-2.8-1.1-2.8-2.7V474.3z M289.8,490.8h8.7v62.7h-8.7V490.8z"/>
	<linearGradient id="SVGID_23_" gradientUnits="userSpaceOnUse" x1="308.3569" y1="513.2949" x2="347.0591" y2="513.2949">
		<stop  offset="0" style="stop-color:#6B1243"/>
		<stop  offset="1" style="stop-color:#E24E25"/>
	</linearGradient>
	<path class="st26" d="M308.4,492.8l11.7-2.1l2.1-17.5h6.6v17.5h18.3v8.7h-18.3v31.6c0,10.3,2.7,12.6,6.7,13.6c0,0,9.7,2.5,10.5,2.5
		v6.3h-10.4c-9.1,0-15.6-5.7-15.6-22.3v-31.6h-11.7V492.8z"/>
	<linearGradient id="SVGID_24_" gradientUnits="userSpaceOnUse" x1="356.4995" y1="522.2036" x2="407.8286" y2="522.2036">
		<stop  offset="0" style="stop-color:#6B1243"/>
		<stop  offset="1" style="stop-color:#E24E25"/>
	</linearGradient>
	<path class="st27" d="M383.9,490.3c14.7,0,24,1.4,24,22.2c0,9.1-4.8,14.4-16.2,14.4h-26.4c0,14.7,2.7,18.4,11.9,18.4
		c10.9,0,20.6,0.1,29.5-1.2v6.6c-9.6,2.7-19.7,3.3-29.5,3.3c-15.9,0-20.6-7.7-20.6-32.2C356.5,493.9,364.5,490.3,383.9,490.3z
		 M391.7,518.3c5.2,0,7.4-1.9,7.4-5.8c0-12.4-2.4-13.5-15.1-13.5c-13.3,0-18.8,0.1-18.8,19.2H391.7z"/>
	<linearGradient id="SVGID_25_" gradientUnits="userSpaceOnUse" x1="418.4487" y1="522.1445" x2="466.8276" y2="522.1445">
		<stop  offset="0" style="stop-color:#6B1243"/>
		<stop  offset="1" style="stop-color:#E24E25"/>
	</linearGradient>
	<path class="st28" d="M439.1,490.2c6.1,0,18.6,1.5,26.9,3.1v6.4c0,0-16.4-0.7-26.9-0.7c-7.1,0-11.9,1.3-11.9,23.6
		c0,18.1,3.4,22.8,11.9,22.8c10.9,0,27.7-1.3,27.7-1.3v6.6c-9.6,2.7-17.9,3.3-27.7,3.4c-11.7,0-20.6-4.5-20.6-32
		C418.4,494.7,427.1,490.2,439.1,490.2z"/>
	<linearGradient id="SVGID_26_" gradientUnits="userSpaceOnUse" x1="478.6294" y1="507.2182" x2="529.8393" y2="507.2182">
		<stop  offset="0" style="stop-color:#6B1243"/>
		<stop  offset="1" style="stop-color:#E24E25"/>
	</linearGradient>
	<path class="st29" d="M478.6,461h8.7v37.2c7.2-4.1,13.6-8.4,23.1-8.4c12.5,0,19.4,9.7,19.4,20.1v43.7h-8.7v-43.7
		c0-7.8-4.5-11.3-10.6-11.3c-9.4,0-14,2.4-23.1,6.7v48.3h-8.7V461z"/>
</g>
</svg>
