<svg width="9px" height="9px" viewBox="0 0 9 9" version="1.1" xmlns="http://www.w3.org/2000/svg" xmlns:xlink="http://www.w3.org/1999/xlink">
    <defs>
        <path d="M1,4.5 C1,6.43333555 2.56679586,8 4.5,8 C6.43333555,8 8,6.43320415 8,4.5 C8,2.56666444 6.43320415,1 4.5,1 C2.56666444,1 1,2.56679586 1,4.5 Z" id="path-1"></path>
    </defs>
    <g id="Dashboard" stroke="none" stroke-width="1" fill="none" fill-rule="evenodd">
        <g id="saasadventure-dashboard" transform="translate(-31.000000, -162.000000)">
            <g id="main" transform="translate(-10.000000, -5.000000)">
                <g id="sidebar" transform="translate(0.000000, 5.000000)">
                    <g id="menu" transform="translate(0.000000, 96.000000)">
                        <g id="Group-3" transform="translate(41.000000, 66.000000)">
                            <path d="M0,4.5 C0,2.01471862 2.01417218,0 4.5,0 C6.98528135,0 9,2.01417218 9,4.5 C9,6.98528135 6.9858278,9 4.5,9 C2.01471862,9 0,6.9858278 0,4.5 Z" id="Path" fill="#FFFFFF"></path>
                            <mask id="mask-2" fill="white">
                                <use xlink:href="#path-1"></use>
                            </mask>
                            <use id="Path" fill="#AD9BEA" xlink:href="#path-1"></use>
                        </g>
                    </g>
                </g>
            </g>
        </g>
    </g>
</svg>