<?xml version="1.0"?>
<svg xmlns="http://www.w3.org/2000/svg" width="512" height="512" viewBox="0 0 128 128"><g><path d="M121.693,69.537H117.6V25.011a1.75,1.75,0,0,0-1.75-1.75H83.429L65.237,5.069a1.75,1.75,0,0,0-2.474,0L44.571,23.261H16.7A12.154,12.154,0,0,0,4.557,35.4h0v75.9a12.154,12.154,0,0,0,12.14,12.14h99.152a1.75,1.75,0,0,0,1.75-1.75V97.949h4.094a1.749,1.749,0,0,0,1.75-1.75V71.287A1.749,1.749,0,0,0,121.693,69.537ZM114.1,26.761V44.043h-9.888L86.929,26.761ZM64,8.781,99.262,44.043H90.528l-18.45-18.45a1.748,1.748,0,0,0-2.474,0,7.934,7.934,0,0,1-11.208,0,1.8,1.8,0,0,0-2.475,0L37.472,44.043H28.738ZM85.579,44.043H42.421L57.252,29.211a11.435,11.435,0,0,0,13.495,0ZM16.7,26.761H41.071L23.789,44.043H16.7a8.641,8.641,0,0,1,0-17.282Zm97.4,93.182H16.7a8.65,8.65,0,0,1-8.64-8.64V43.917a12.1,12.1,0,0,0,8.64,3.626h97.4V69.537H90.144a14.206,14.206,0,1,0,0,28.412H114.1Zm5.844-25.494h-29.8a10.706,10.706,0,1,1,0-21.412h29.8Z"/><path d="M90.144,76.839a6.9,6.9,0,1,0,6.9,6.9A6.913,6.913,0,0,0,90.144,76.839Zm0,10.308a3.4,3.4,0,1,1,3.4-3.4A3.409,3.409,0,0,1,90.144,87.147Z"/><path d="M17,81.993a1.75,1.75,0,0,0-1.75,1.75V104.5a1.75,1.75,0,1,0,3.5,0V83.743A1.75,1.75,0,0,0,17,81.993Z"/><path d="M17,69.537a1.75,1.75,0,0,0-1.75,1.75V76.5a1.75,1.75,0,1,0,3.5,0V71.287A1.75,1.75,0,0,0,17,69.537Z"/></g></svg>
